<svg width="209" height="40" viewBox="0 0 209 40" xmlns="http://www.w3.org/2000/svg" xmlns:sketch="http://www.bohemiancoding.com/sketch/ns"><title>logo + BETA</title><desc>Created with Sketch.</desc><g sketch:type="MSLayerGroup" fill="none"><g sketch:type="MSShapeGroup"><path d="M41.669 7.05h8.231c5.021 0 8.085 2.672 8.085 6.483 0 2.637-1.176 4.455-3.349 5.344 3.065.963 4.631 3.136 4.631 6.164 0 4.347-3.24 6.947-9.048 6.947h-8.55v-24.938zm7.981 1.994h-5.701v9.014h5.45c4.24 0 6.236-1.248 6.236-4.488 0-2.815-2.137-4.526-5.985-4.526zm-.036 11.009h-5.665v9.941h6.021c4.594 0 6.913-1.711 6.913-4.953 0-3.598-2.461-4.988-7.269-4.988z" fill="#32221E"/><path d="M65.502 8.634c0 1.134-.426 1.727-1.353 1.727s-1.355-.593-1.355-1.727c0-1.135.428-1.701 1.355-1.701s1.353.566 1.353 1.701zm-2.422 4.899h2.139v18.455h-2.139v-18.455z" fill="#32221E"/><path d="M83.136 15.208v-1.675h2.138v17.244c0 5.914-2.528 8.336-8.228 8.336-2.175 0-4.456-.499-6.165-1.354l.143-2.281c1.675 1.141 3.92 1.711 6.056 1.711 4.06 0 6.056-1.639 6.056-5.985v-1.104c-1.318 1.319-3.383 2.138-5.484 2.138-4.811 0-8.624-3.563-8.624-9.548 0-5.985 3.813-9.585 8.624-9.585 2.101 0 4.166.82 5.484 2.103zm-11.897 7.482c0 4.951 2.956 7.623 6.697 7.623 1.96 0 3.954-.782 5.2-2.245v-10.793c-1.246-1.463-3.24-2.244-5.2-2.244-3.741 0-6.697 2.707-6.697 7.659z" fill="#32221E"/><path d="M102.966 9.865c-1.742-.855-3.49-1.176-5.522-1.176-3.883 0-6.019 1.639-6.019 4.026 0 2.316 1.531 3.918 5.484 5.236 5.416 1.818 7.735 3.847 7.735 7.695 0 4.17-3.174 6.769-8.694 6.769-2.353 0-4.846-.605-6.629-1.638l.18-2.387c1.959 1.283 4.273 1.958 6.553 1.958 4.134 0 6.236-1.815 6.236-4.63 0-2.637-1.639-4.24-6.162-5.7-4.846-1.567-7.055-3.635-7.055-7.269 0-3.739 3.313-6.126 8.406-6.126 2.247 0 4.03.32 5.667.962l-.18 2.28" fill="#32221E"/><path d="M105.497 13.533h3.455v-6.483h2.139v6.483h5.912v1.852h-5.912v10.261c0 3.562.996 4.846 3.49 4.846.711 0 1.354-.106 2.031-.286l.285 1.96c-.82.177-1.64.249-2.459.249-3.705 0-5.486-1.886-5.486-6.163v-10.867h-3.455v-1.852" fill="#32221E"/><path d="M118.571 26.751c0-3.67 2.815-5.986 7.944-5.986h5.201v-1.209c0-3.421-1.569-4.525-5.201-4.525-2.245 0-4.309.534-6.057 1.424l-.248-1.995c1.639-.785 3.99-1.355 6.375-1.355 4.918 0 7.267 1.711 7.267 6.699v12.184h-2.136v-2.209c-1.352 1.674-3.598 2.636-6.375 2.636-3.742 0-6.77-1.923-6.77-5.664zm13.145.926v-5.058h-5.164c-3.957 0-5.772 1.638-5.772 4.062 0 2.6 1.996 3.811 4.737 3.811 2.673 0 4.81-.856 6.199-2.815z" fill="#32221E"/><path d="M137.2 30.849l.18-2.28c1.674 1.282 3.81 1.923 5.664 1.923 3.135 0 4.881-1.246 4.881-3.278 0-1.746-1.319-2.922-4.846-3.847-3.918-.998-5.769-2.815-5.769-5.451 0-3.063 2.707-4.811 6.554-4.811 1.852 0 3.67.393 5.201 1.07l-.214 2.173c-1.495-.926-3.206-1.317-5.022-1.317-2.744 0-4.312 1.104-4.312 2.814 0 1.674 1.283 2.85 4.56 3.74 4.559 1.247 6.057 3.1 6.057 5.559 0 3.42-2.707 5.271-7.055 5.271-2.031 0-4.275-.535-5.879-1.566" fill="#32221E"/><path d="M156.069 17.417v14.571h-2.136v-24.938h2.136v8.265c1.389-1.317 3.528-2.21 5.7-2.21 4.74 0 7.589 2.889 7.589 8.195v10.688h-2.136v-10.617c0-4.204-1.961-6.34-5.739-6.34-2.136 0-4.13.925-5.414 2.386" fill="#32221E"/><path d="M13.991 34.231c-.177 0-.352-.045-.512-.139-.421-.242-10.309-6.044-10.309-13.532v-4.519c-1.523-.499-2.402-2.024-2.402-4.292 0-2.378 3.844-6.818 13.099-6.818l.166.002.084-.002c9.255 0 13.098 4.44 13.098 6.818 0 2.268-.879 3.793-2.401 4.292v4.519c0 7.488-9.889 13.29-10.31 13.532-.159.094-.336.139-.513.139zm-8.77-18.491v4.82c0 5.443 6.821 10.195 8.77 11.441 1.947-1.248 8.773-6.01 8.773-11.441v-4.82c-.1-.159-.157-.346-.157-.544 0-.567.457-1.027 1.024-1.027.419 0 1.534 0 1.534-2.42 0-1.011-2.762-4.766-11.048-4.766l-.126.002-.082-.002h-.003c-8.325 0-11.087 3.757-11.087 4.766 0 2.42 1.114 2.42 1.532 2.42.568 0 1.024.46 1.024 1.027 0 .198-.056.385-.154.544z" fill="#F05023"/><path d="M13.991 6.983c-.566 0-1.025-.462-1.025-1.026v-4.457c0-.566.459-1.025 1.025-1.025.567 0 1.025.459 1.025 1.025v4.457c0 .564-.458 1.026-1.025 1.026" fill="#F05023"/><path d="M14.056 28.149c-.363 0-.715-.194-.901-.536-.27-.497-.087-1.119.411-1.389 4.075-2.221 4.728-6.253 4.817-7.043v-.23c.075-.664.551-.94.938-.977.486-.047.937.261 1.078.725.229.751-.545 6.431-5.851 9.323-.157.087-.325.127-.492.127" fill="#F05023"/><path d="M16.74 16.219h-12.544c-.567 0-1.026-.459-1.026-1.023 0-.567.459-1.027 1.026-1.027h12.544c.564 0 1.023.46 1.023 1.027 0 .564-.459 1.023-1.023 1.023" fill="#F05023"/><path d="M23.949 16.219h-2.18c-.566 0-1.025-.459-1.025-1.023 0-.567.459-1.027 1.025-1.027h2.18c.566 0 1.026.46 1.026 1.027 0 .564-.46 1.023-1.026 1.023" fill="#F05023"/></g><path d="M178.56 10.005c1.83 0 2.895-1.095 2.895-2.7 0-1.2-.885-2.295-1.95-2.46.915-.195 1.755-1.035 1.755-2.295 0-1.5-1.065-2.55-2.805-2.55h-4.455v10.005h4.56zm-.315-5.67h-3v-3.225h3c1.125 0 1.725.72 1.725 1.62 0 .915-.6 1.605-1.725 1.605zm.075 4.56h-3.075v-3.45h3.075c1.215 0 1.845.81 1.845 1.725 0 1.065-.69 1.725-1.845 1.725zm11.67 1.11v-1.11h-5.31v-3.45h5.205v-1.11h-5.205v-3.225h5.31v-1.11h-6.555v10.005h6.555zm5.7 0v-8.895h3.18v-1.11h-7.59v1.11h3.165v8.895h1.245zm12.39 0l-4.02-10.005h-1.545l-4.035 10.005h1.425l.885-2.235h4.98l.885 2.235h1.425zm-2.67-3.33h-4.245l2.115-5.4 2.13 5.4z" fill="#2D231E" sketch:type="MSShapeGroup"/></g></svg>